<svg xmlns="http://www.w3.org/2000/svg" width="40" height="40" viewBox="0 0 40 40" fill="none"><path d="M37.4963 36.3964C37.4598 35.7274 37.5036 35.0529 37.4817 34.3822C37.4196 32.4866 36.7187 30.8566 35.3397 29.5543C34.8177 29.0605 34.1971 28.6708 33.6166 28.23C34.4608 26.7734 34.5932 26.3609 34.4919 25.3178C34.3842 24.2135 33.8977 23.2981 33.0572 22.5771C31.6572 21.3761 29.4869 21.3624 28.0504 22.5433C27.292 23.1667 26.8183 23.9698 26.6294 24.929C26.383 26.1738 26.6906 27.2882 27.4563 28.2054C26.6924 28.7949 25.9513 29.3644 25.2194 29.9284C24.9027 29.6464 24.5705 29.3161 24.2027 29.0331C23.8367 28.752 23.4342 28.5193 23.0473 28.2656C24.7001 26.2003 23.8887 23.7946 22.6211 22.6601C21.2366 21.4208 19.0736 21.3277 17.5869 22.4813C16.8221 23.0745 16.3284 23.8575 16.1167 24.7976C15.8274 26.0844 16.1103 27.2517 16.959 28.2556C16.5401 28.5303 16.1358 28.7648 15.7689 29.0468C15.4021 29.3288 15.0717 29.6592 14.7714 29.9275C14.024 29.3526 13.2829 28.7831 12.5418 28.2136C14.1143 26.2532 13.4025 23.947 12.2014 22.7751C10.8726 21.4792 8.73336 21.2939 7.20834 22.3635C6.39517 22.9339 5.86127 23.7124 5.60938 24.6707C5.25984 26.0041 5.55097 27.2088 6.43167 28.2802C6.33767 28.3359 6.28109 28.3724 6.22268 28.4043C4.70678 29.2138 3.6116 30.4131 2.99465 32.0129C2.76467 32.6098 2.66154 33.255 2.5 33.8793V37.0215C2.66336 37.3592 2.91434 37.6102 3.25202 37.7735H36.737C37.3265 37.5007 37.531 37.0334 37.4963 36.3964ZM9.44523 23.7197C10.503 23.7124 11.3892 24.5913 11.3873 25.6445C11.3864 26.7543 10.5477 27.5939 9.44431 27.5893C8.34732 27.5848 7.50403 26.7278 7.51407 25.6262C7.5232 24.5913 8.40025 23.7261 9.44523 23.7197ZM13.5019 32.033C13.0958 33.0944 13.0027 34.1978 13.0337 35.3204C13.0374 35.4426 13.0347 35.5649 13.0347 35.7055H4.58904C4.17288 32.3533 6.02463 30.2232 8.63024 29.756C10.5979 29.4037 12.2105 30.0699 13.4152 31.6771C13.4846 31.7683 13.5384 31.9372 13.5019 32.033ZM20.0255 23.7197C21.0979 23.7462 21.9476 24.6251 21.9238 25.6837C21.8983 26.799 21.0522 27.6131 19.9452 27.5884C18.8446 27.5638 18.0378 26.705 18.0642 25.587C18.0889 24.5466 18.9842 23.6942 20.0255 23.7197ZM24.889 35.7055H15.1018C14.9731 33.6028 15.351 31.6972 17.2511 30.4925C19.0289 29.3653 20.9144 29.3562 22.7041 30.4733C24.6298 31.6743 25.0104 33.5882 24.889 35.7055ZM30.5237 23.7197C31.5778 23.7115 32.4813 24.6013 32.4749 25.6427C32.4685 26.7506 31.6262 27.5921 30.5273 27.5884C29.4249 27.5857 28.5962 26.7424 28.6007 25.6281C28.6044 24.5913 29.475 23.7279 30.5237 23.7197ZM35.4346 35.7119H26.9534C26.9534 35.4901 26.9498 35.2784 26.9543 35.0676C26.979 34.0344 26.8548 33.0269 26.4925 32.0513C26.4533 31.9463 26.5099 31.7683 26.581 31.6652C28.0029 29.6282 30.8175 29.0523 33.028 30.3574C34.5685 31.2673 35.357 32.6417 35.4319 34.4241C35.4501 34.8421 35.4346 35.2619 35.4346 35.7119Z" fill="#999999"></path><path d="M31.6647 4.63567C31.6647 4.01115 31.4592 3.74097 30.818 3.52635C27.3918 2.38252 23.9638 1.24205 20.5385 0.0940072C20.1746 -0.0280353 19.8392 -0.0330853 19.4717 0.0914822C16.0261 1.24962 12.5769 2.39767 9.12855 3.54992C8.57394 3.73508 8.32612 4.03388 8.33349 4.49427C8.33994 4.93447 8.59421 5.22484 9.13315 5.40496C10.4579 5.84768 11.7809 6.29629 13.1103 6.72807C13.3563 6.80803 13.4346 6.91913 13.4327 7.15817C13.4198 8.78512 13.4254 10.4129 13.4263 12.0399C13.4272 12.7115 13.6207 12.9632 14.3042 13.1913C15.9957 13.7552 17.6918 14.3107 19.3777 14.8898C19.8024 15.0362 20.1875 15.0371 20.6085 14.8923C22.2742 14.3242 23.9472 13.772 25.6165 13.214C26.3987 12.9522 26.5673 12.7351 26.5673 11.9826C26.5673 10.3658 26.5645 8.74893 26.5737 7.13207C26.5747 7.01845 26.6364 6.8316 26.7211 6.80214C27.6608 6.46968 28.6098 6.16247 29.5964 5.83506V6.49745C29.5964 7.97795 29.5937 9.45762 29.5974 10.9381C29.5992 11.4894 29.8876 11.853 30.3814 11.9532C31.1018 12.0996 31.6619 11.6771 31.6638 10.9667C31.6684 8.85666 31.6665 6.74659 31.6647 4.63567ZM24.2392 11.6645C22.8887 12.1072 21.5445 12.5642 20.1949 13.0061C20.0686 13.0465 19.8982 13.0423 19.7711 13.0002C18.4325 12.5617 17.0957 12.1148 15.7645 11.6577C15.6548 11.6199 15.5084 11.4877 15.5074 11.3977C15.4908 10.1284 15.4955 8.85834 15.4955 7.53271C16.7668 7.95691 17.9921 8.34072 19.1944 8.77839C19.7582 8.98375 20.2603 8.9745 20.8176 8.77334C21.9158 8.37607 23.0342 8.02509 24.1453 7.65475C24.2494 7.62024 24.3553 7.58994 24.4981 7.54702V9.87845C24.4981 10.3616 24.488 10.8447 24.5027 11.327C24.5083 11.5189 24.4318 11.6005 24.2392 11.6645ZM26.4356 4.87471C24.3885 5.55815 22.3423 6.24495 20.2897 6.91661C20.1166 6.973 19.8816 6.97384 19.7084 6.91661C17.291 6.12207 14.8782 5.31406 12.3723 4.47744C13.289 4.17191 14.1283 3.89163 14.9676 3.61136C16.5623 3.07858 18.1561 2.54327 19.7526 2.01723C19.8807 1.97515 20.0511 1.95579 20.1746 1.99619C22.6021 2.79746 25.026 3.60799 27.4508 4.41852C27.4821 4.42862 27.5079 4.45219 27.5687 4.49006C27.1744 4.62389 26.8059 4.75098 26.4356 4.87471Z" fill="#999999"></path></svg>