<svg xmlns="http://www.w3.org/2000/svg" width="150" height="34" viewBox="0 0 150 34" fill="none"><g clip-path="url(#clip0_587_529)"><path d="M18.4838 33.667L2.87983 25.8692C1.99411 25.3112 1.26613 24.5444 0.762895 23.6392C0.259655 22.7341 -0.00268327 21.7197 2.06926e-05 20.6894V0.666992L13.8391 7.40877C13.8391 7.40877 16.3089 9.06855 17.4989 10.4765C17.4989 10.4765 15.9565 12.8917 15.8515 14.2483C15.8515 14.2483 14.2066 11.381 11.2743 9.97299C8.34196 8.56499 3.60228 6.20121 3.60228 6.20121V20.2348C3.60228 20.2348 3.13731 22.3492 5.65964 23.5054C8.18197 24.6617 16.6589 28.8832 16.6589 28.8832V17.6705C16.7799 15.8537 17.3064 14.0849 18.2013 12.4883C19.7012 9.82144 21.9061 7.90988 23.9634 6.9541C26.0208 5.99833 36.8851 0.666992 36.8851 0.666992V21.4448C36.8851 21.4448 36.4226 24.3121 34.1077 25.8228L22.0186 31.907V28.1328L32.0504 23.1021C32.0504 23.1021 33.4903 22.5497 33.4403 20.3863C33.3903 18.223 33.4403 6.30144 33.4403 6.30144L25.1058 10.2761C25.1058 10.2761 20.2187 12.9405 20.2187 17.4188V32.7626L18.4838 33.667Z" fill="#F03646"></path><path d="M50.7464 7.54297V18.5112C50.7464 20.0593 51.0839 21.1553 51.7588 21.799C52.0612 22.1072 52.4241 22.3526 52.8257 22.5206C53.2273 22.6886 53.6594 22.7757 54.0962 22.7767C55.1795 22.7767 55.9836 22.4427 56.5085 21.7745C57.0182 21.1419 57.3267 20.377 57.396 19.5745C57.4119 19.494 57.4203 19.4121 57.421 19.3301V7.54297H59.9958V18.9096C59.9958 20.9467 59.4125 22.45 58.2459 23.4196C57.0955 24.3848 55.6244 24.9063 54.1087 24.8863C52.5739 24.899 51.0927 24.3345 49.9715 23.3096C48.7782 22.2585 48.1824 20.8733 48.1841 19.1541V7.54297H50.7464Z" fill="white"></path><path d="M62.5335 17.5658C62.5185 16.2648 63.0255 15.0098 63.9459 14.0702C64.8859 13.0745 66.19 12.5775 67.8582 12.5791C68.1813 12.5843 68.5033 12.617 68.8206 12.6769C69.2097 12.7454 69.5907 12.8519 69.958 12.9947C70.6988 13.3174 71.3597 13.7926 71.8954 14.388C72.4854 15.0236 72.7812 15.928 72.7828 17.1013V24.6791H70.408V17.7613C70.4103 17.0185 70.1886 16.2915 69.7706 15.6713C69.3456 15.0195 68.6415 14.6936 67.6582 14.6936C67.2679 14.6751 66.8785 14.7454 66.5206 14.8989C66.1628 15.0525 65.8462 15.2851 65.5958 15.5784C65.1054 16.1517 64.7969 16.8527 64.7084 17.5951V24.684H62.5335V17.5658Z" fill="white"></path><path d="M75.9327 10.2318C75.9209 10.0549 75.9535 9.87779 76.0275 9.71593C76.1016 9.55406 76.2149 9.4123 76.3577 9.30294C76.6201 9.09733 76.9463 8.98525 77.2826 8.98516C77.6309 8.96798 77.9735 9.07675 78.245 9.29072C78.3918 9.40558 78.5081 9.55326 78.5842 9.72131C78.6604 9.88935 78.6941 10.0728 78.6825 10.2563C78.6961 10.4405 78.6647 10.6253 78.5908 10.7954C78.5169 10.9654 78.4027 11.1158 78.2575 11.2341C77.9975 11.4453 77.6706 11.5619 77.3326 11.5641C76.9844 11.5803 76.6422 11.4717 76.3702 11.2585C76.2214 11.1398 76.104 10.988 76.0279 10.8157C75.9518 10.6434 75.9191 10.4557 75.9327 10.2685V10.2318ZM76.1077 12.9452H78.2825V24.6785H76.1077V12.9452Z" fill="white"></path><path d="M82.632 12.9458L86.3567 22.1785L89.7065 12.9385H92.2813L88.1316 23.5229C87.9858 23.9244 87.7309 24.2793 87.3941 24.5496C87.1051 24.7694 86.7585 24.905 86.3942 24.9407H86.2692C85.8928 24.9519 85.5234 24.8401 85.2193 24.6229C84.8504 24.3514 84.5685 23.9825 84.4068 23.5596L80.0571 12.9507L82.632 12.9458Z" fill="white"></path><path d="M101.128 16.0251C101.054 15.9675 100.987 15.9019 100.928 15.8295C100.851 15.7348 100.767 15.645 100.678 15.5606C100.453 15.3703 100.2 15.2138 99.9283 15.0962C99.4996 14.9293 99.0393 14.8543 98.5784 14.8762C97.2968 14.8762 96.3177 15.3203 95.6411 16.2084C94.9849 17.051 94.6332 18.0827 94.6412 19.1418V19.2151C94.6626 20.1721 95.0312 21.0904 95.6811 21.8062C96.3536 22.5884 97.326 22.9795 98.5909 22.9795C99.9592 22.9795 100.876 22.6658 101.341 22.0384C101.886 21.2345 102.277 20.3398 102.493 19.3984C102.489 19.3866 102.489 19.3736 102.493 19.3618C102.498 19.3568 102.501 19.351 102.503 19.3447C102.505 19.3384 102.506 19.3317 102.506 19.3251L104.681 19.4718C104.698 19.5526 104.711 19.6341 104.72 19.7162C104.72 19.8042 104.733 19.8898 104.733 19.9606C104.73 20.2405 104.696 20.5192 104.63 20.7918C104.56 21.1018 104.459 21.4046 104.331 21.6962C103.857 22.6119 103.162 23.4007 102.306 23.994C101.357 24.6931 100.116 25.0435 98.5809 25.0451C96.9262 25.0932 95.3186 24.5022 94.1062 23.4C93.5083 22.8574 93.0359 22.1961 92.7207 21.4605C92.4056 20.7248 92.2549 19.9317 92.2788 19.1344C92.2788 17.3092 92.7788 15.8955 93.7787 14.8933C94.668 13.9502 95.812 13.2722 97.0785 12.9378C97.3285 12.8889 97.5785 12.8473 97.8285 12.8155C98.077 12.7822 98.3276 12.7659 98.5784 12.7666C99.8584 12.7328 101.112 13.1297 102.128 13.8911C103.104 14.6244 103.91 15.5517 104.493 16.6118L96.2161 21.0118L95.2436 19.3006L101.128 16.0251Z" fill="white"></path><path d="M108.803 12.9453V14.0942C108.865 14.0094 108.932 13.9278 109.003 13.8498C109.088 13.7593 109.178 13.6664 109.278 13.5687C109.566 13.2806 109.905 13.0448 110.278 12.872C110.738 12.6585 111.243 12.5538 111.753 12.5664L112.553 12.542V14.6687H111.953C111.038 14.799 110.359 15.1127 109.915 15.6098C109.495 16.068 109.191 16.6165 109.028 17.2109C108.916 17.5934 108.849 17.987 108.828 18.3842C108.813 18.7582 108.803 19.0687 108.803 19.3131V24.6664H106.628V12.9331L108.803 12.9453Z" fill="white"></path><path d="M118.242 22.552C118.307 22.5672 118.375 22.5754 118.442 22.5764H118.642C118.707 22.5916 118.775 22.5998 118.842 22.6009H119.042C119.412 22.6047 119.779 22.5469 120.129 22.4298C120.454 22.3157 120.621 22.0468 120.629 21.6231C120.629 21.1652 120.379 20.8066 119.879 20.5475C119.266 20.243 118.621 20.0052 117.954 19.8386L117.329 19.6798L116.68 19.4964C115.743 19.281 114.867 18.8634 114.117 18.2742C113.796 17.998 113.543 17.6546 113.376 17.2695C113.21 16.8843 113.134 16.4674 113.155 16.0498C113.155 14.6955 113.621 13.8441 114.555 13.4953C115.621 13.1226 116.748 12.9445 117.879 12.9698L122.404 12.9453V14.8446H117.679C117.159 14.8475 116.642 14.9216 116.142 15.0646C115.958 15.1004 115.794 15.1985 115.677 15.3417C115.56 15.4849 115.499 15.6639 115.505 15.8469C115.502 16.0575 115.562 16.2644 115.678 16.4423C115.793 16.6202 115.959 16.7615 116.155 16.8491C116.616 17.0872 117.102 17.2757 117.604 17.4113L118.054 17.5091C118.204 17.5409 118.347 17.5726 118.479 17.6069C118.612 17.6411 118.679 17.668 118.779 17.6924C118.873 17.714 118.965 17.7426 119.054 17.778C120.539 18.2489 121.564 18.7663 122.129 19.3302C122.694 19.8941 122.977 20.6559 122.979 21.6158C122.929 22.6734 122.625 23.4149 122.067 23.8402C121.534 24.2529 120.901 24.5225 120.229 24.6224C120.018 24.6534 119.805 24.6738 119.592 24.6835C119.384 24.6835 119.189 24.6835 119.004 24.6835H118.504C118.422 24.6664 118.338 24.6582 118.254 24.6591H113.152V22.5324L118.242 22.552Z" fill="white"></path><path d="M125.741 10.2319C125.73 10.055 125.763 9.87812 125.837 9.71636C125.911 9.5546 126.024 9.41277 126.166 9.30298C126.43 9.09874 126.755 8.98683 127.091 8.98521C127.44 8.9678 127.782 9.07659 128.054 9.29076C128.201 9.40536 128.317 9.55299 128.394 9.7211C128.47 9.88921 128.503 10.0728 128.491 10.2563C128.506 10.4406 128.474 10.6256 128.4 10.7958C128.327 10.9659 128.212 11.1162 128.066 11.2341C127.807 11.446 127.48 11.5628 127.141 11.5641C126.793 11.5801 126.451 11.4715 126.179 11.2585C126.029 11.1384 125.91 10.9845 125.834 10.81C125.758 10.6355 125.726 10.4455 125.741 10.2563V10.2319ZM125.916 12.9452H128.091V24.6785H125.916V12.9452Z" fill="white"></path><path d="M132.051 20.8405V10.0605H134.401V12.945H138.951V15.0472H134.401V21.0117C134.395 21.3835 134.463 21.753 134.601 22.0994C134.733 22.4172 135.193 22.5761 135.976 22.5761L138.751 22.5517V24.6783H135.713C135.683 24.6793 135.653 24.6877 135.626 24.7028H135.451C134.318 24.7028 133.484 24.3565 132.951 23.6639C132.436 22.9924 132.128 22.1909 132.064 21.3539C132.047 21.2734 132.038 21.1915 132.039 21.1094V20.8405H132.051Z" fill="white"></path><path d="M142.101 12.9453V19.7335C142.1 19.8157 142.108 19.8976 142.126 19.978C142.155 20.6646 142.37 21.3312 142.751 21.9091C143.134 22.4958 143.901 22.7891 145.051 22.7891C145.933 22.7891 146.58 22.4982 146.988 21.9213C147.4 21.3272 147.614 20.6226 147.6 19.9046V12.9453H149.975V19.8631C149.993 19.9434 150.001 20.0254 150 20.1075V20.4375C149.975 21.4404 149.63 22.4104 149.013 23.212C148.369 24.0822 147.37 24.6404 146.013 24.8864V29.8975H143.863V24.8669C142.833 24.6145 141.873 24.1429 141.051 23.4858C140.259 22.8339 139.813 21.8928 139.713 20.6624V12.9453H142.101Z" fill="white"></path></g><defs><clipPath id="clip0_587_529"><rect width="150" height="33" fill="white" transform="translate(0 0.666992)"></rect></clipPath></defs></svg>