<svg width="151" height="34" viewBox="0 0 151 34" fill="none" xmlns="http://www.w3.org/2000/svg">
<g clip-path="url(#clip0_129_371)">
<path d="M18.9838 33.5L3.37983 25.7022C2.49411 25.1442 1.76613 24.3774 1.26289 23.4722C0.759655 22.5671 0.497317 21.5527 0.500021 20.5224V0.5L14.3391 7.24178C14.3391 7.24178 16.8089 8.90156 17.9989 10.3096C17.9989 10.3096 16.4565 12.7247 16.3515 14.0813C16.3515 14.0813 14.7066 11.214 11.7743 9.806C8.84196 8.398 4.10228 6.03422 4.10228 6.03422V20.0678C4.10228 20.0678 3.63731 22.1822 6.15964 23.3384C8.68197 24.4947 17.1589 28.7162 17.1589 28.7162V17.5036C17.2799 15.6867 17.8064 13.9179 18.7013 12.3213C20.2012 9.65444 22.4061 7.74289 24.4634 6.78711C26.5208 5.83133 37.3851 0.5 37.3851 0.5V21.2778C37.3851 21.2778 36.9226 24.1451 34.6077 25.6558L22.5186 31.74V27.9658L32.5504 22.9351C32.5504 22.9351 33.9903 22.3827 33.9403 20.2193C33.8903 18.056 33.9403 6.13444 33.9403 6.13444L25.6058 10.1091C25.6058 10.1091 20.7187 12.7736 20.7187 17.2518V32.5956L18.9838 33.5Z" fill="#F03646"/>
<path d="M51.2467 7.37646V18.3447C51.2467 19.8928 51.5841 20.9888 52.2591 21.6325C52.5615 21.9407 52.9243 22.1861 53.3259 22.3541C53.7275 22.5221 54.1596 22.6092 54.5964 22.6102C55.6797 22.6102 56.4838 22.2762 57.0088 21.608C57.5184 20.9754 57.827 20.2105 57.8962 19.408C57.9122 19.3275 57.9205 19.2456 57.9212 19.1636V7.37646H60.496V18.7431C60.496 20.7802 59.9127 22.2835 58.7462 23.2531C57.5957 24.2183 56.1246 24.7398 54.6089 24.7198C53.0741 24.7325 51.593 24.168 50.4717 23.1431C49.2785 22.092 48.6827 20.7068 48.6843 18.9876V7.37646H51.2467Z" fill="black"/>
<path d="M63.0333 17.3983C63.0182 16.0973 63.5253 14.8423 64.4457 13.9027C65.3856 12.907 66.6897 12.41 68.3579 12.4116C68.681 12.4168 69.0031 12.4495 69.3204 12.5094C69.7094 12.5779 70.0905 12.6844 70.4578 12.8272C71.1986 13.1499 71.8594 13.6251 72.3952 14.2205C72.9851 14.8561 73.2809 15.7605 73.2826 16.9338V24.5116H70.9078V17.5938C70.9101 16.851 70.6884 16.1241 70.2703 15.5038C69.8453 14.852 69.1412 14.5261 68.1579 14.5261C67.7676 14.5076 67.3782 14.5779 67.0204 14.7315C66.6625 14.885 66.346 15.1176 66.0956 15.411C65.6051 15.9843 65.2967 16.6852 65.2081 17.4276V24.5165H63.0333V17.3983Z" fill="black"/>
<path d="M76.4324 10.0653C76.4207 9.88837 76.4532 9.71129 76.5273 9.54942C76.6013 9.38756 76.7147 9.2458 76.8574 9.13644C77.1198 8.93083 77.4461 8.81875 77.7823 8.81866C78.1306 8.80148 78.4732 8.91024 78.7448 9.12421C78.8915 9.23908 79.0079 9.38676 79.084 9.5548C79.1601 9.72284 79.1938 9.90632 79.1823 10.0898C79.1959 10.274 79.1645 10.4588 79.0906 10.6289C79.0167 10.7989 78.9024 10.9493 78.7573 11.0675C78.4972 11.2788 78.1704 11.3954 77.8323 11.3975C77.4842 11.4138 77.1419 11.3051 76.8699 11.092C76.7212 10.9733 76.6038 10.8215 76.5277 10.6492C76.4515 10.4769 76.4189 10.2892 76.4324 10.102V10.0653ZM76.6074 12.7787H78.7823V24.512H76.6074V12.7787Z" fill="black"/>
<path d="M83.132 12.7783L86.8567 22.011L90.2065 12.771H92.7813L88.6316 23.3554C88.4858 23.7569 88.2309 24.1118 87.8941 24.3821C87.6051 24.6019 87.2585 24.7375 86.8942 24.7732H86.7692C86.3928 24.7845 86.0234 24.6726 85.7193 24.4554C85.3504 24.184 85.0685 23.815 84.9068 23.3921L80.5571 12.7832L83.132 12.7783Z" fill="black"/>
<path d="M101.628 15.8586C101.554 15.801 101.487 15.7354 101.428 15.663C101.351 15.5683 101.267 15.4785 101.178 15.3941C100.953 15.2038 100.7 15.0473 100.428 14.9297C99.9996 14.7628 99.5393 14.6878 99.0784 14.7097C97.7968 14.7097 96.8177 15.1538 96.1411 16.0419C95.4849 16.8845 95.1332 17.9162 95.1412 18.9753V19.0486C95.1626 20.0056 95.5312 20.9239 96.1811 21.6397C96.8536 22.4219 97.826 22.813 99.0909 22.813C100.459 22.813 101.376 22.4993 101.841 21.8719C102.386 21.068 102.777 20.1733 102.993 19.2319C102.989 19.2201 102.989 19.2071 102.993 19.1953C102.998 19.1903 103.001 19.1845 103.003 19.1782C103.005 19.1719 103.006 19.1652 103.006 19.1586L105.181 19.3053C105.198 19.3861 105.211 19.4676 105.22 19.5497C105.22 19.6377 105.233 19.7233 105.233 19.7941C105.23 20.074 105.196 20.3527 105.13 20.6253C105.06 20.9353 104.959 21.2381 104.831 21.5297C104.357 22.4454 103.662 23.2342 102.806 23.8275C101.857 24.5266 100.616 24.877 99.0809 24.8786C97.4262 24.9267 95.8186 24.3357 94.6062 23.2335C94.0083 22.6909 93.5359 22.0296 93.2207 21.2939C92.9056 20.5583 92.7549 19.7652 92.7788 18.9679C92.7788 17.1427 93.2788 15.729 94.2787 14.7268C95.168 13.7837 96.312 13.1057 97.5785 12.7713C97.8285 12.7224 98.0785 12.6808 98.3285 12.649C98.577 12.6157 98.8276 12.5994 99.0784 12.6001C100.358 12.5663 101.612 12.9632 102.628 13.7246C103.604 14.4579 104.41 15.3852 104.993 16.4453L96.7161 20.8453L95.7436 19.1341L101.628 15.8586Z" fill="black"/>
<path d="M109.303 12.7783V13.9272C109.365 13.8424 109.432 13.7608 109.503 13.6828C109.588 13.5923 109.678 13.4994 109.778 13.4017C110.066 13.1136 110.405 12.8778 110.778 12.705C111.238 12.4915 111.743 12.3868 112.253 12.3994L113.053 12.375V14.5017H112.453C111.538 14.632 110.859 14.9457 110.415 15.4428C109.995 15.901 109.691 16.4495 109.528 17.0439C109.416 17.4264 109.349 17.82 109.328 18.2172C109.313 18.5912 109.303 18.9017 109.303 19.1461V24.4994H107.128V12.7661L109.303 12.7783Z" fill="black"/>
<path d="M118.742 22.385C118.808 22.4002 118.875 22.4084 118.942 22.4094H119.142C119.208 22.4246 119.275 22.4328 119.342 22.4339H119.542C119.912 22.4378 120.28 22.3799 120.63 22.2628C120.955 22.1487 121.121 21.8798 121.13 21.4561C121.13 20.9982 120.88 20.6397 120.38 20.3805C119.766 20.076 119.121 19.8382 118.455 19.6717L117.83 19.5128L117.18 19.3294C116.243 19.114 115.368 18.6964 114.617 18.1072C114.296 17.831 114.043 17.4876 113.876 17.1025C113.71 16.7173 113.634 16.3004 113.655 15.8828C113.655 14.5285 114.122 13.6771 115.055 13.3283C116.121 12.9556 117.248 12.7775 118.38 12.8028L122.904 12.7783V14.6777H118.18C117.659 14.6805 117.142 14.7546 116.642 14.8977C116.459 14.9334 116.294 15.0315 116.177 15.1747C116.061 15.3179 115.999 15.4969 116.005 15.6799C116.002 15.8905 116.062 16.0974 116.178 16.2753C116.293 16.4532 116.459 16.5945 116.655 16.6821C117.116 16.9202 117.602 17.1087 118.105 17.2443L118.555 17.3421C118.705 17.3739 118.847 17.4057 118.98 17.4399C119.112 17.4741 119.18 17.501 119.28 17.5254C119.373 17.547 119.465 17.5756 119.555 17.611C121.04 18.082 122.064 18.5994 122.629 19.1632C123.194 19.7271 123.478 20.4889 123.479 21.4488C123.429 22.5064 123.125 23.2479 122.567 23.6732C122.035 24.0859 121.401 24.3555 120.73 24.4554C120.518 24.4864 120.305 24.5068 120.092 24.5165C119.885 24.5165 119.69 24.5165 119.505 24.5165H119.005C118.922 24.4995 118.839 24.4913 118.755 24.4921H113.653V22.3654L118.742 22.385Z" fill="black"/>
<path d="M126.242 10.0649C126.231 9.88801 126.263 9.71113 126.337 9.54937C126.411 9.38761 126.524 9.24577 126.667 9.13599C126.93 8.93175 127.256 8.81984 127.592 8.81821C127.94 8.80081 128.283 8.9096 128.554 9.12377C128.701 9.23836 128.818 9.386 128.894 9.55411C128.97 9.72222 129.004 9.90583 128.992 10.0893C129.006 10.2737 128.975 10.4586 128.901 10.6288C128.827 10.7989 128.712 10.9492 128.567 11.0671C128.307 11.2791 127.98 11.3958 127.642 11.3971C127.293 11.4131 126.951 11.3045 126.679 11.0915C126.529 10.9714 126.411 10.8175 126.335 10.643C126.258 10.4685 126.227 10.2785 126.242 10.0893V10.0649ZM126.417 12.7782H128.592V24.5115H126.417V12.7782Z" fill="black"/>
<path d="M132.551 20.674V9.89404H134.901V12.7785H139.451V14.8807H134.901V20.8452C134.895 21.217 134.963 21.5865 135.101 21.9329C135.233 22.2507 135.693 22.4096 136.476 22.4096L139.251 22.3852V24.5118H136.213C136.183 24.5128 136.153 24.5212 136.126 24.5363H135.951C134.818 24.5363 133.984 24.19 133.451 23.4974C132.936 22.8259 132.628 22.0244 132.564 21.1874C132.547 21.1069 132.538 21.025 132.539 20.9429V20.674H132.551Z" fill="black"/>
<path d="M142.6 12.7783V19.5665C142.6 19.6487 142.608 19.7306 142.625 19.811C142.655 20.4976 142.87 21.1642 143.25 21.7421C143.634 22.3288 144.4 22.6221 145.55 22.6221C146.433 22.6221 147.08 22.3312 147.488 21.7543C147.9 21.1602 148.114 20.4556 148.1 19.7377V12.7783H150.475V19.6961C150.492 19.7764 150.501 19.8584 150.5 19.9405V20.2705C150.475 21.2734 150.129 22.2434 149.513 23.045C148.869 23.9152 147.869 24.4734 146.513 24.7194V29.7305H144.363V24.6999C143.333 24.4475 142.373 23.9759 141.551 23.3188C140.759 22.6669 140.313 21.7258 140.213 20.4954V12.7783H142.6Z" fill="black"/>
</g>
<defs>
<clipPath id="clip0_129_371">
<rect width="150" height="33" fill="white" transform="translate(0.5 0.5)"/>
</clipPath>
</defs>
</svg>
