<svg xmlns="http://www.w3.org/2000/svg" width="40" height="40" viewBox="0 0 40 40" fill="none"><path d="M39.6656 15.8584C37.3677 11.9396 35.0677 8.02189 32.7667 4.10523C32.3 3.31043 31.6969 3.15002 30.9042 3.60731C29.6667 4.31981 28.4271 5.0271 27.2 5.75627C26.925 5.91981 26.6969 5.93127 26.4042 5.81877C25.3021 5.39689 24.1896 5.00314 23.0833 4.59169C21.7573 4.09794 20.4885 4.2146 19.2667 4.92398C17.4927 5.95314 15.7115 6.96877 13.9438 8.00835C13.6625 8.17398 13.4604 8.18752 13.174 8.01877C11.6083 7.09585 10.0333 6.19064 8.45521 5.29064C7.77083 4.90002 7.11979 5.09169 6.73958 5.78023C6.43125 6.33648 6.1375 6.90106 5.83646 7.46044C3.89167 11.0823 1.94583 14.7031 0 18.324V18.9469C0.204167 19.3917 0.569792 19.6573 0.9875 19.8875C1.73333 20.2969 2.46458 20.7344 3.21354 21.1677C2.74167 21.9938 2.27708 22.774 1.84583 23.5719C1.33438 24.5177 1.29167 25.5063 1.68229 26.5052C2.25521 27.9709 3.64583 28.8021 5.31354 28.6948C5.4875 28.6834 5.63958 28.6292 5.75313 28.8688C6.51458 30.4688 7.66667 31.1386 9.43438 31.0229C9.63438 31.0094 9.72813 31.0521 9.81354 31.2386C10.5094 32.7469 11.75 33.4886 13.4 33.3646C13.6875 33.3427 13.7906 33.4281 13.9073 33.6771C14.4646 34.8584 15.4031 35.5688 16.7052 35.7031C18.1 35.8459 19.2146 35.3094 20.0198 34.1521C20.1135 34.0177 20.199 33.8771 20.2927 33.7344C20.4521 33.824 20.5771 33.8938 20.7 33.9646C22.0729 34.7531 23.4292 35.5719 24.8229 36.3219C26.4615 37.2042 28.4969 36.6084 29.4313 35.0042C29.65 34.6292 29.774 34.2011 29.9573 33.7584C30.9708 33.9656 31.9573 33.8073 32.8396 33.1761C33.7271 32.5427 34.1729 31.6479 34.299 30.5896C37.1688 30.6084 38.9302 27.6834 37.4458 25.1323C38.4354 24.4177 38.974 23.4448 38.9698 22.2198C38.9656 20.9823 38.401 20.0115 37.3719 19.2688C38.0521 18.7073 38.701 18.1719 39.349 17.6354C39.9938 17.1021 40.0896 16.5823 39.6656 15.8584ZM6.01146 25.6844C5.62604 26.3448 4.95729 26.5604 4.36458 26.2271C3.76354 25.8896 3.60729 25.1802 3.99375 24.5063C4.61146 23.4271 5.23021 22.349 5.86042 21.2771C6.15625 20.7729 6.66667 20.5698 7.18542 20.7125C7.70521 20.8552 8.03958 21.2886 8.09167 21.8427C8.00729 22.0698 7.95208 22.3125 7.83542 22.5198C7.23646 23.5802 6.62396 24.6323 6.01146 25.6844ZM10.0375 28.0688C9.67188 28.6959 8.98229 28.8927 8.40417 28.5584C7.82917 28.2261 7.65625 27.5292 8.01563 26.9011C8.89792 25.3604 9.78542 23.8229 10.6781 22.2886C10.9802 21.7698 11.499 21.5552 12.0323 21.699C12.5302 21.8323 12.876 22.2979 12.9188 22.8448C12.8396 23.0604 12.7906 23.2927 12.6781 23.4886C11.8052 25.0198 10.925 26.5469 10.0375 28.0688ZM14.0031 30.5375C13.799 30.8792 13.4594 31.0459 13.051 31.0469C12.1781 31.0531 11.5844 30.1604 12.001 29.3834C12.6385 28.1969 13.3229 27.0354 14.0167 25.8813C14.351 25.3261 15.049 25.1896 15.5885 25.5115C16.1031 25.8177 16.325 26.4969 16.024 27.0386C15.3708 28.2167 14.6906 29.3802 14.0031 30.5375ZM19.2073 30.8906C18.8719 31.5031 18.5177 32.1063 18.1635 32.7094C17.7802 33.3615 17.1052 33.5771 16.5146 33.2417C15.926 32.9084 15.7635 32.2073 16.1313 31.5563C16.501 30.9031 16.8708 30.249 17.2594 29.6063C17.549 29.1271 18.0781 28.9375 18.6052 29.0886C19.0781 29.225 19.4177 29.6865 19.4677 30.2156C19.3823 30.4417 19.3229 30.6813 19.2073 30.8906ZM36.4823 22.8084C36.1479 23.3969 35.4427 23.5615 34.7885 23.1875C33.2677 22.3167 31.7552 21.4323 30.2323 20.5646C29.4313 20.1073 28.5542 20.5042 28.4146 21.3709C28.3365 21.8563 28.5875 22.3073 29.1094 22.6104C31.0542 23.7334 32.9979 24.8573 34.9448 25.9771C35.3146 26.1896 35.5781 26.475 35.6302 26.9104C35.6833 27.3573 35.5375 27.7354 35.1656 28C34.7708 28.2813 34.3417 28.3146 33.9167 28.0802C33.3365 27.7625 32.7667 27.424 32.1938 27.0938C30.7542 26.2636 29.3198 25.4261 27.875 24.6042C27.0802 24.1521 26.1823 24.5729 26.0771 25.4448C26.0104 25.9959 26.2833 26.3854 26.7542 26.6563C28.2625 27.5219 29.7688 28.3917 31.274 29.2636C31.7865 29.5604 32.0302 30.0302 31.9427 30.5167C31.7896 31.3615 30.9167 31.75 30.1385 31.3052C28.6948 30.4823 27.2594 29.6469 25.8198 28.8156C25.7302 28.7646 25.6406 28.7115 25.55 28.6615C24.9125 28.3104 24.2229 28.4688 23.8854 29.0417C23.5469 29.6156 23.7448 30.3073 24.3719 30.6771C25.2208 31.1781 26.0812 31.6615 26.9323 32.1594C27.4219 32.4448 27.6615 32.9115 27.5802 33.3875C27.4448 34.1854 26.6042 34.6386 25.8896 34.2427C24.4031 33.4188 22.9406 32.5542 21.4521 31.6969C22.274 29.6146 21.3021 27.9365 20.1542 27.2688C19.7271 27.0198 19.2167 26.9188 18.7521 26.7313C18.6479 26.6896 18.5094 26.5781 18.4979 26.4854C18.2604 24.4396 17.3708 23.449 15.3677 23.0229C15.3302 23.0146 15.2938 22.999 15.2333 22.9802C15.2198 21.6021 14.6802 20.4865 13.4562 19.7865C12.2448 19.0938 11.0219 19.1844 9.80833 19.8636C9.69688 19.7334 9.59271 19.6052 9.48125 19.4834C8.25833 18.1438 6.28125 17.9354 4.82188 19.0115C4.59688 19.1781 4.44271 19.1948 4.20833 19.0459C3.74063 18.749 3.25208 18.4834 2.73854 18.1865C4.58542 14.7427 6.41667 11.3281 8.26667 7.87814C9.24167 8.44064 10.1917 8.98752 11.1719 9.5521C11.0854 9.6271 11.025 9.68856 10.9552 9.73752C9.39896 10.8323 8.96146 12.8698 9.94063 14.4636C10.9292 16.0719 12.9646 16.6156 14.6427 15.6875C15.9042 14.9917 17.1417 14.2531 18.3896 13.5334C19.0198 13.1698 19.6531 12.8146 20.276 12.4396C20.476 12.3188 20.6292 12.3063 20.8406 12.4292C25.8729 15.3427 30.9104 18.2469 35.9448 21.1563C36.6031 21.5365 36.8177 22.2177 36.4823 22.8084ZM36.7958 16.7115C36.2656 17.1479 35.7344 17.5823 35.1979 18.0229C33.0448 16.7792 30.9104 15.5469 28.776 14.3156C26.3031 12.8886 23.826 11.4698 21.3625 10.0292C20.8052 9.70314 20.3188 9.70627 19.7625 10.0323C17.7167 11.2365 15.6552 12.4146 13.5969 13.599C13.0396 13.9188 12.4552 13.8448 12.0667 13.4219C11.699 13.0229 11.6583 12.4052 11.9927 11.9521C12.0979 11.8115 12.2448 11.6875 12.3979 11.599C15.0906 10.0365 17.7896 8.48231 20.4844 6.92293C21.0781 6.57918 21.6823 6.55835 22.3177 6.79585C23.6656 7.30002 25.0219 7.78231 26.3667 8.29481C26.8313 8.47085 27.2406 8.43231 27.6646 8.18335C28.8385 7.49481 30.0208 6.82085 31.2365 6.11877C33.2365 9.52502 35.224 12.9115 37.2354 16.3396C37.0708 16.4792 36.9344 16.5969 36.7958 16.7115Z" fill="#999999"></path></svg>