<svg xmlns="http://www.w3.org/2000/svg" width="42" height="33" viewBox="0 0 42 33" fill="none"><path d="M0 32.375V23.2193C0 20.5863 0.493689 17.8486 1.48107 15.0061C2.49836 12.1338 3.87471 9.42596 5.6101 6.88272C7.37541 4.30955 9.35016 2.14031 11.5344 0.375L19.0743 5.267C17.309 7.92993 15.828 10.7125 14.6311 13.6148C13.4642 16.4872 12.8957 19.6588 12.9257 23.1296V32.375H0ZM22.7546 32.375V23.2193C22.7546 20.5863 23.2482 17.8486 24.2356 15.0061C25.2529 12.1338 26.6293 9.42596 28.3647 6.88272C30.13 4.30955 32.1047 2.14031 34.2889 0.375L41.8289 5.267C40.0636 7.92993 38.5825 10.7125 37.3857 13.6148C36.2188 16.4872 35.6503 19.6588 35.6802 23.1296V32.375H22.7546Z" fill="#DDDDDD"></path></svg>