<svg xmlns="http://www.w3.org/2000/svg" width="40" height="40" viewBox="0 0 40 40" fill="none"><path d="M39.1 26.7594C38.736 24.1295 37.3878 22.1558 35.1116 20.8024C34.9937 20.7358 34.8809 20.6692 34.7579 20.5923C37.6595 18.4648 38.0594 14.9941 36.788 12.5488C36.1113 11.2518 35.1168 10.2829 33.7839 9.68824C31.8768 8.83724 29.9851 8.96541 28.155 9.90355C26.6632 6.31502 24.0743 4.17727 20.1731 4.11063C16.1078 4.03886 13.3959 6.18685 11.8323 9.90868C10.3456 9.12945 8.77689 8.90902 7.14155 9.35502C5.50107 9.80615 4.25534 10.7853 3.37871 12.2361C1.9433 14.6097 2.15348 18.3469 5.20886 20.582C5.19348 20.6025 5.18323 20.6333 5.16785 20.6435C5.07045 20.6999 4.96792 20.7512 4.87564 20.8076C2.33291 22.3404 0.969264 24.5858 0.835975 27.554C0.805217 28.1846 1.04103 28.4922 1.65109 28.687C7.60806 30.6197 13.565 32.5472 19.522 34.4799C19.8655 34.5927 20.1679 34.5824 20.5063 34.4748C26.412 32.5523 32.3228 30.635 38.2388 28.728C38.6694 28.5896 39.0026 28.3743 39.1667 27.9436V26.9696C39.141 26.8978 39.1103 26.8312 39.1 26.7594ZM27.4014 16.9268C28.237 15.5068 28.6215 13.9637 28.5446 12.313C28.5292 12.0413 28.6061 11.8824 28.8368 11.744C30.2927 10.8673 31.7897 10.7751 33.2815 11.5902C34.7784 12.4001 35.491 13.7279 35.5628 15.2146C35.5576 17.3728 34.1991 19.1261 32.2972 19.6182C30.3799 20.1155 28.3703 19.2543 27.4014 17.5369C27.2784 17.3216 27.2681 17.1575 27.4014 16.9268ZM27.5706 20.6128C27.2168 20.8383 26.817 21.0895 26.4325 21.3305C25.6994 20.9204 24.9714 20.5154 24.264 20.1155C24.8074 19.7105 25.3713 19.2901 25.9045 18.8954C26.453 19.4644 27.0015 20.0284 27.5706 20.6128ZM19.9834 5.99717C23.6488 5.99205 26.6376 8.96028 26.6529 12.6155C26.6683 16.286 23.6847 19.285 20.009 19.3004C16.359 19.3106 13.3548 16.327 13.3395 12.677C13.3292 9.00129 16.3077 6.0023 19.9834 5.99717ZM15.7335 20.1155C15.0312 20.5102 14.3084 20.9152 13.565 21.3305C13.1857 21.0947 12.7807 20.8383 12.4167 20.6128C12.9806 20.0386 13.5343 19.4696 14.0931 18.9005C14.6313 19.3004 15.1901 19.7156 15.7335 20.1155ZM4.49116 16.0246C4.25534 14.2354 4.90127 12.7949 6.37257 11.7952C7.84387 10.8058 9.40232 10.7956 10.971 11.626C11.3299 11.8157 11.5554 12.0362 11.4375 12.4719C11.417 12.5642 11.4375 12.6667 11.4375 12.7693C11.458 14.2559 11.8323 15.6452 12.591 16.9268C12.7243 17.1524 12.714 17.3164 12.591 17.5369C11.6836 19.1568 9.83295 20.0232 7.99254 19.69C6.17777 19.3568 4.7321 17.865 4.49116 16.0246ZM2.77379 27.0362C3.13264 24.8114 4.25534 23.176 6.27517 22.243C8.25399 21.3253 10.1918 21.5253 12.0989 22.6531C10.3815 24.473 9.37669 26.6005 9.07423 29.0766C6.95187 28.3896 4.87564 27.7181 2.77379 27.0362ZM28.7497 29.7943C26.3351 30.5684 23.9 31.3066 21.5059 32.1576C20.4653 32.5267 19.5425 32.5267 18.4967 32.1576C16.1078 31.3066 13.6727 30.5735 11.2581 29.784C11.1299 29.7379 11.0274 29.62 10.9608 29.5739C11.2274 25.5496 14.4622 22.0174 18.3737 21.3612C23.2797 20.5359 27.7961 23.5656 28.8624 28.4101C28.9342 28.7229 28.9496 29.051 29.0162 29.3688C29.0726 29.6149 28.9855 29.7174 28.7497 29.7943ZM30.9233 29.0817C30.6157 26.6108 29.616 24.4781 27.8987 22.6582C29.7391 21.5509 31.6307 21.3356 33.5737 22.1763C35.6755 23.0889 36.8444 24.7447 37.2186 27.0362C35.1065 27.7232 33.0354 28.3948 30.9233 29.0817Z" fill="#999999" stroke="#999999" stroke-width="0.3"></path><path d="M39.1 26.7594C38.736 24.1295 37.3878 22.1558 35.1116 20.8024C34.9937 20.7358 34.8809 20.6692 34.7579 20.5923C37.6595 18.4648 38.0594 14.9941 36.788 12.5488C36.1113 11.2518 35.1168 10.2829 33.7839 9.68824C31.8768 8.83724 29.9851 8.96541 28.155 9.90355C26.6632 6.31502 24.0743 4.17727 20.1731 4.11063C16.1078 4.03886 13.3959 6.18685 11.8323 9.90868C10.3456 9.12945 8.77689 8.90902 7.14155 9.35502C5.50107 9.80615 4.25534 10.7853 3.37871 12.2361C1.9433 14.6097 2.15348 18.3469 5.20886 20.582C5.19348 20.6025 5.18323 20.6333 5.16785 20.6435C5.07045 20.6999 4.96792 20.7512 4.87564 20.8076C2.33291 22.3404 0.969264 24.5858 0.835975 27.554C0.805217 28.1846 1.04103 28.4922 1.65109 28.687C7.60806 30.6197 13.565 32.5472 19.522 34.4799C19.8655 34.5927 20.1679 34.5824 20.5063 34.4748C26.412 32.5523 32.3228 30.635 38.2388 28.728C38.6694 28.5896 39.0026 28.3743 39.1667 27.9436V26.9696C39.141 26.8978 39.1103 26.8312 39.1 26.7594ZM27.4014 16.9268C28.237 15.5068 28.6215 13.9637 28.5446 12.313C28.5292 12.0413 28.6061 11.8824 28.8368 11.744C30.2927 10.8673 31.7897 10.7751 33.2815 11.5902C34.7784 12.4001 35.491 13.7279 35.5628 15.2146C35.5576 17.3728 34.1991 19.1261 32.2972 19.6182C30.3799 20.1155 28.3703 19.2543 27.4014 17.5369C27.2784 17.3216 27.2681 17.1575 27.4014 16.9268ZM27.5706 20.6128C27.2168 20.8383 26.817 21.0895 26.4325 21.3305C25.6994 20.9204 24.9714 20.5154 24.264 20.1155C24.8074 19.7105 25.3713 19.2901 25.9045 18.8954C26.453 19.4644 27.0015 20.0284 27.5706 20.6128ZM19.9834 5.99717C23.6488 5.99205 26.6376 8.96028 26.6529 12.6155C26.6683 16.286 23.6847 19.285 20.009 19.3004C16.359 19.3106 13.3548 16.327 13.3395 12.677C13.3292 9.00129 16.3077 6.0023 19.9834 5.99717ZM15.7335 20.1155C15.0312 20.5102 14.3084 20.9152 13.565 21.3305C13.1857 21.0947 12.7807 20.8383 12.4167 20.6128C12.9806 20.0386 13.5343 19.4696 14.0931 18.9005C14.6313 19.3004 15.1901 19.7156 15.7335 20.1155ZM4.49116 16.0246C4.25534 14.2354 4.90127 12.7949 6.37257 11.7952C7.84387 10.8058 9.40232 10.7956 10.971 11.626C11.3299 11.8157 11.5554 12.0362 11.4375 12.4719C11.417 12.5642 11.4375 12.6667 11.4375 12.7693C11.458 14.2559 11.8323 15.6452 12.591 16.9268C12.7243 17.1524 12.714 17.3164 12.591 17.5369C11.6836 19.1568 9.83295 20.0232 7.99254 19.69C6.17777 19.3568 4.7321 17.865 4.49116 16.0246ZM2.77379 27.0362C3.13264 24.8114 4.25534 23.176 6.27517 22.243C8.25399 21.3253 10.1918 21.5253 12.0989 22.6531C10.3815 24.473 9.37669 26.6005 9.07423 29.0766C6.95187 28.3896 4.87564 27.7181 2.77379 27.0362ZM28.7497 29.7943C26.3351 30.5684 23.9 31.3066 21.5059 32.1576C20.4653 32.5267 19.5425 32.5267 18.4967 32.1576C16.1078 31.3066 13.6727 30.5735 11.2581 29.784C11.1299 29.7379 11.0274 29.62 10.9608 29.5739C11.2274 25.5496 14.4622 22.0174 18.3737 21.3612C23.2797 20.5359 27.7961 23.5656 28.8624 28.4101C28.9342 28.7229 28.9496 29.051 29.0162 29.3688C29.0726 29.6149 28.9855 29.7174 28.7497 29.7943ZM30.9233 29.0817C30.6157 26.6108 29.616 24.4781 27.8987 22.6582C29.7391 21.5509 31.6307 21.3356 33.5737 22.1763C35.6755 23.0889 36.8444 24.7447 37.2186 27.0362C35.1065 27.7232 33.0354 28.3948 30.9233 29.0817Z" fill="#999999" stroke="#999999" stroke-width="0.3"></path></svg>