<svg xmlns="http://www.w3.org/2000/svg" width="40" height="40" viewBox="0 0 40 40" fill="none"><path d="M38.6631 22.0606C38.5703 20.7256 37.8897 19.7383 36.6826 19.1504C36.417 19.0205 36.3399 18.8858 36.3399 18.6006C36.3477 14.7412 36.3418 10.8809 36.3359 7.02152C36.3359 6.76469 36.2666 6.50199 36.2969 6.25004C36.3965 5.40629 36.1358 4.97953 35.3213 4.74613C29.9951 3.22172 24.6699 1.69437 19.3389 0.187539C19.0078 0.0937888 18.6045 0.0898826 18.2744 0.182656C12.9434 1.68949 7.61818 3.21781 2.292 4.74223C1.61134 4.93754 1.24415 5.3643 1.25294 5.93266C1.26075 6.4932 1.61818 6.90434 2.27833 7.09477C3.18751 7.35844 4.09962 7.61527 5.00978 7.87602C6.09279 8.18656 7.17482 8.49808 8.26759 8.81254C8.26759 10.0235 8.24708 11.2051 8.27345 12.3868C8.29982 13.6192 8.27052 14.8643 8.44337 16.0782C8.87013 19.0703 10.2344 21.584 12.5781 23.5284C13.0244 23.8975 13.5156 24.2129 14.0068 24.5684C13.875 24.837 13.7168 25.0938 13.6201 25.3721C13.4902 25.7471 13.2471 25.8614 12.8652 25.8916C11.0371 26.0371 9.31447 26.5772 7.75782 27.5342C3.71876 30.0186 1.542 33.6387 1.25392 38.3887C1.20802 39.1329 1.41212 39.6787 2.10548 40H35.4883C36.1826 39.6787 36.3838 39.1329 36.3428 38.3887C36.2383 36.4551 35.8027 34.6133 34.9102 32.8936C33.668 30.502 31.8701 28.6377 29.4981 27.3438C27.9619 26.5059 26.3213 26.0098 24.5742 25.8672C24.4326 25.8555 24.2295 25.8086 24.1699 25.709C23.9463 25.337 23.7705 24.9366 23.6016 24.5967C24.2656 24.0801 24.9209 23.6475 25.4854 23.1182C28.0957 20.6709 29.2871 17.6055 29.3242 14.0635C29.3408 12.4522 29.3272 10.8399 29.3272 9.22855V8.80863C30.8994 8.35941 32.4317 7.92191 33.9844 7.47758C33.9942 7.56937 34.0059 7.6309 34.0059 7.6934C34.0068 11.3711 34.0039 15.0489 34.0127 18.7266C34.0137 18.958 33.9072 19.0293 33.7305 19.1153C32.4619 19.7266 31.7637 20.7452 31.6826 22.1465C31.6348 22.9756 31.6572 23.8096 31.6729 24.6407C31.6846 25.3096 32.1699 25.7959 32.8418 25.8008C34.4014 25.8145 35.9609 25.8145 37.5205 25.8008C38.1748 25.795 38.6641 25.3174 38.6787 24.6709C38.6973 23.8008 38.7236 22.9268 38.6631 22.0606ZM17.627 37.6426H3.66798C3.75685 36.6612 3.98048 35.7305 4.35841 34.8467C5.91505 31.2051 8.62404 28.9834 12.541 28.2754C12.7832 28.2315 13.0313 28.1993 13.2764 28.2012C13.3936 28.2022 13.5596 28.2647 13.6201 28.3555C14.9277 30.294 16.2227 32.2393 17.5176 34.1866C17.5723 34.2696 17.6211 34.375 17.6221 34.4698C17.6289 35.5196 17.627 36.5694 17.627 37.6426ZM18.7969 31.8536C18.7149 31.7442 18.6514 31.667 18.5957 31.584C17.6162 30.1162 16.6436 28.6426 15.6543 27.1817C15.5088 26.9668 15.4902 26.8018 15.6152 26.583C15.7764 26.3028 15.9248 26.0127 16.0518 25.7149C16.1397 25.5079 16.2549 25.4493 16.4707 25.5059C18.0225 25.9092 19.5762 25.9063 21.1289 25.5059C21.3174 25.4571 21.4277 25.4922 21.5303 25.6827C22.1563 26.8457 22.1621 26.8428 21.4375 27.9287C20.6387 29.127 19.8389 30.3252 19.0391 31.5235C18.9697 31.627 18.8916 31.7256 18.7969 31.8536ZM23.9326 28.3965C24.0508 28.2188 24.167 28.1778 24.3779 28.1944C29.0186 28.5723 32.8848 32.1133 33.7949 36.7286C33.8526 37.0205 33.8887 37.3164 33.9395 37.6368H19.9678C19.9678 36.5655 19.9639 35.5264 19.9727 34.4883C19.9736 34.3809 20.0274 34.2618 20.0889 34.17C21.3692 32.2442 22.6563 30.3233 23.9326 28.3965ZM20.0664 23.3409C17.2305 23.8184 14.9092 22.8164 13.0254 20.7256C11.8516 19.4229 11.1494 17.8731 10.8154 16.1553C10.8067 16.1084 10.8027 16.0596 10.791 15.9668C16.1348 18.168 21.4483 18.1719 26.793 15.9698C26.2578 19.4229 23.667 22.7334 20.0664 23.3409ZM26.9717 12.6241C26.9639 13.0948 26.7012 13.4151 26.2725 13.6162C24.3604 14.5118 22.3535 15.0391 20.2471 15.212C17.4922 15.4366 14.835 15.0411 12.2676 14.0264C11.9297 13.8926 11.6016 13.7364 11.2715 13.585C10.8672 13.4004 10.6328 13.0703 10.6231 12.6397C10.6006 11.6026 10.6162 10.5645 10.6162 9.48246C11.5303 9.74223 12.4141 9.9932 13.2969 10.2452C14.9443 10.7139 16.5869 11.1983 18.2422 11.6387C18.5859 11.7305 18.9961 11.7373 19.3369 11.6436C21.79 10.9717 24.2324 10.2637 26.6787 9.5684C26.7637 9.54398 26.8516 9.52738 26.9766 9.49711C26.9766 10.5733 26.9883 11.5987 26.9717 12.6241ZM26.9483 7.0557C24.3301 7.80277 21.7119 8.55082 19.0908 9.29008C18.9248 9.33695 18.7256 9.35648 18.5635 9.31058C14.7334 8.22562 10.9063 7.12894 7.07911 6.03422C6.99806 6.01078 6.91993 5.97758 6.73048 5.90922C7.46486 5.69828 8.09181 5.51566 8.71974 5.33695C11.9492 4.41312 15.1777 3.48734 18.4102 2.57621C18.6436 2.51078 18.9277 2.50687 19.1611 2.5723C22.918 3.6309 26.6699 4.70512 30.4238 5.77641C30.5332 5.80766 30.6406 5.84867 30.749 5.8848C30.75 5.91215 30.751 5.93852 30.7529 5.96586C29.4844 6.32914 28.2168 6.6934 26.9483 7.0557ZM36.3467 23.46H33.9893C34.0147 22.959 33.9863 22.4541 34.0781 21.9717C34.1826 21.4229 34.7275 21.087 35.2725 21.1338C35.8154 21.1807 36.2627 21.6075 36.335 22.1553C36.3516 22.2823 36.3457 22.4131 36.3467 22.543C36.3477 22.8379 36.3467 23.1328 36.3467 23.46Z" fill="#999999"></path><path d="M28.1539 35.0112L28.1539 35.0112C28.7461 34.9905 29.1751 34.5462 29.1742 33.9934C29.1724 33.4382 28.7416 32.9921 28.1513 32.9801L28.1539 35.0112ZM28.1539 35.0112C27.8906 35.0205 27.6292 35.018 27.3641 35.0155M28.1539 35.0112L27.3641 35.0155M25.8203 35.1611L25.8253 35.0112C25.2306 34.9913 24.8012 34.5502 24.8004 33.9978L24.8004 33.9976C24.7987 33.4424 25.2287 32.9931 25.8185 32.981L25.8186 32.981C26.5958 32.9645 27.374 32.9645 28.1512 32.98L25.8203 35.1611ZM25.8203 35.1611L25.8252 35.0112M25.8203 35.1611L25.8252 35.0112M27.3641 35.0155C27.2401 35.0143 27.1154 35.0131 26.9893 35.0131M27.3641 35.0155L26.9893 35.0131M26.9893 35.0131C26.864 35.0131 26.7399 35.0142 26.6166 35.0152M26.9893 35.0131L26.6166 35.0152M26.6166 35.0152C26.3508 35.0175 26.0886 35.0198 25.8252 35.0112M26.6166 35.0152L25.8252 35.0112" fill="#999999" stroke="white" stroke-width="0.3"></path></svg>