<svg xmlns="http://www.w3.org/2000/svg" width="40" height="40" viewBox="0 0 40 40" fill="none"><path d="M38.474 4.83427H32.9042C32.9042 4.44365 32.9094 4.08323 32.9031 3.72386C32.8917 3.00719 32.3854 2.48636 31.7177 2.49573C31.0646 2.50615 30.5781 3.02073 30.5667 3.71865C30.5604 4.06969 30.5656 4.41969 30.5656 4.80198H24.6396C24.6396 4.46865 24.6417 4.12386 24.6385 3.77906C24.6323 3.02281 24.15 2.49573 23.4688 2.49573C22.7875 2.49677 22.3062 3.02386 22.301 3.78011C22.2979 4.11656 22.3 4.45198 22.3 4.81031H16.4521C16.4521 4.4374 16.4573 4.07698 16.451 3.71656C16.4385 3.01865 15.95 2.50511 15.2979 2.49573C14.6292 2.4874 14.125 3.00823 14.1146 3.72594C14.1094 4.07594 14.1135 4.42594 14.1135 4.83427H13.6875C11.9073 4.83427 10.1271 4.83323 8.34792 4.83427C7.48542 4.83531 7.01875 5.29781 7.01771 6.15302C7.01458 8.64781 7.05625 11.1436 7.00417 13.6364C6.90312 18.4009 5.81562 22.9155 3.42083 27.0707C2.6125 28.4728 1.65104 29.7582 0.430208 30.8395C0.253125 30.9957 0.141667 31.2259 0 31.4228V32.0468C0.303125 32.7051 0.817708 32.9291 1.53333 32.9155C3.20833 32.8822 4.88437 32.9041 6.56042 32.9041H7.01771V35.9697C7.01771 36.1259 7.0125 36.2822 7.01979 36.4374C7.05 37.078 7.52812 37.5509 8.17187 37.5812C8.275 37.5864 8.37917 37.5822 8.48333 37.5822C18.474 37.5832 28.4656 37.5832 38.4562 37.5822C39.5042 37.5822 39.9219 37.1666 39.9219 36.1249V6.26865C39.9219 5.25511 39.4969 4.83427 38.474 4.83427ZM9.37812 7.20406H14.1135C14.1135 7.55406 14.1094 7.91344 14.1135 8.27177C14.1229 8.99261 14.6198 9.51448 15.2875 9.51136C15.9552 9.50823 16.4427 8.9874 16.451 8.26135C16.4562 7.91344 16.4521 7.56448 16.4521 7.19573H22.3V7.67177C22.301 8.95094 22.649 9.50406 23.4594 9.51136C24.2823 9.51865 24.6385 8.95719 24.6396 7.65302V7.20094H30.5656C30.5656 7.56136 30.5615 7.92073 30.5667 8.28011C30.5771 8.99781 31.0802 9.51969 31.749 9.51136C32.401 9.50302 32.8906 8.98948 32.9031 8.29156C32.9094 7.93115 32.9042 7.57073 32.9042 7.19261H37.5542V11.8353H9.37812V7.20406ZM37.5656 35.2218H9.37604V32.9041H9.82604C17.024 32.9041 24.2219 32.9009 31.4198 32.9124C31.9656 32.9134 32.3948 32.7509 32.7812 32.3739C34.7635 30.4416 36.1844 28.1311 37.3448 25.6426C37.4021 25.5197 37.4625 25.3978 37.5656 25.1822V35.2218ZM37.4177 16.2686C37.0562 19.6551 36.1812 22.8957 34.6094 25.9301C33.7927 27.5061 32.8031 28.9624 31.5844 30.2593C31.3833 30.4739 31.1844 30.5728 30.8823 30.5718C22.0333 30.5634 13.1844 30.5655 4.33542 30.5655H3.84896C7.52396 25.6947 9.06562 20.178 9.34375 14.2072H37.5698C37.5198 14.9082 37.4896 15.5905 37.4177 16.2686Z" fill="#999999"></path></svg>